G04 ---------------------------- Layer name :BOTTOM LAYER*
G04 EasyEDA v5.4.12, Wed, 30 May 2018 14:54:02 GMT*
G04 28c5c568ee064045b2737d890bb1bb74*
G04 Gerber Generator version 0.2*
G04 Scale: 100 percent, Rotated: No, Reflected: No *
G04 Dimensions in inches *
G04 leading zeros omitted , absolute positions ,2 integer and 4 decimal *
%FSLAX24Y24*%
%MOIN*%
G90*
G70D02*

%ADD11C,0.015000*%
%ADD12C,0.008000*%
%ADD13C,0.030000*%
%ADD14C,0.020000*%
%ADD15C,0.024000*%
%ADD16C,0.024400*%
%ADD20R,0.098425X0.078740*%
%ADD21C,0.074000*%
%ADD22C,0.118110*%
%ADD23R,0.055100X0.055100*%
%ADD24C,0.055100*%
%ADD25R,0.063000X0.063000*%
%ADD26C,0.060000*%
%ADD27C,0.086614*%
%ADD28C,0.063000*%
%ADD29C,0.047000*%
%ADD30C,0.070866*%
%ADD31C,0.078740*%

%LPD*%
G54D11*
G01X17792Y14150D02*
G01X18338Y14696D01*
G01X18338Y15646D01*
G01X18293Y15688D01*
G01X17072Y15688D01*
G01X17700Y14150D02*
G01X17792Y14150D01*
G01X17800Y4250D02*
G01X17918Y4250D01*
G01X18455Y4786D01*
G01X18455Y13486D01*
G01X17792Y14150D01*
G01X17072Y15688D02*
G01X15900Y14517D01*
G01X15900Y10300D01*
G01X15431Y25717D02*
G01X15431Y17330D01*
G01X17072Y15688D01*
G01X4200Y29700D02*
G01X4200Y26700D01*
G54D12*
G01X32300Y12800D02*
G01X31785Y12284D01*
G01X31785Y3644D01*
G01X5200Y26700D02*
G01X5635Y27134D01*
G01X6385Y27134D01*
G01X6621Y26900D01*
G01X6621Y22100D01*
G01X5081Y20559D01*
G01X5081Y17519D01*
G01X5872Y16728D01*
G01X40600Y9300D02*
G01X40010Y9888D01*
G01X40010Y14350D01*
G01X33842Y20519D01*
G01X33842Y22800D01*
G54D14*
G01X17200Y10300D02*
G01X15510Y8609D01*
G01X14651Y8609D01*
G01X13340Y7300D01*
G01X13300Y7300D01*
G01X17200Y10300D02*
G01X17005Y10494D01*
G01X17005Y14455D01*
G01X17700Y15150D01*
G54D12*
G01X33100Y1500D02*
G01X28639Y5961D01*
G01X28639Y17707D01*
G01X27967Y18378D01*
G01X19227Y3986D02*
G01X19227Y3811D01*
G01X17867Y2451D01*
G01X15381Y2451D01*
G01X11000Y22000D02*
G01X11000Y21573D01*
G01X15486Y11982D02*
G01X12063Y15407D01*
G01X12063Y20723D01*
G01X11213Y21573D01*
G01X11000Y21573D01*
G54D13*
G01X36169Y16900D02*
G01X32925Y20144D01*
G01X32925Y25707D01*
G01X30089Y28544D01*
G01X30089Y29013D01*
G01X29172Y29930D01*
G01X20397Y29930D01*
G01X19068Y28600D01*
G01X8000Y22000D02*
G01X8535Y21463D01*
G01X8535Y13036D01*
G01X8000Y12500D01*
G01X2300Y16632D02*
G01X1486Y15819D01*
G01X1486Y12044D01*
G01X2300Y11232D01*
G01X29100Y1500D02*
G01X29703Y896D01*
G01X33956Y896D01*
G01X41168Y8109D01*
G01X41168Y10730D01*
G01X40600Y11300D01*
G01X29100Y1500D02*
G01X29100Y3100D01*
G01X14015Y27534D02*
G01X14097Y27534D01*
G01X16800Y24830D01*
G01X16800Y23800D01*
G01X12726Y5826D02*
G01X14100Y7200D01*
G01X14600Y7200D01*
G01X9400Y2500D02*
G01X12726Y5826D01*
G01X11000Y13500D02*
G01X10464Y12963D01*
G01X10464Y8088D01*
G01X12726Y5826D01*
G01X5825Y18625D02*
G01X6413Y18036D01*
G01X6413Y15086D01*
G01X8000Y13500D01*
G01X5700Y18750D02*
G01X5825Y18625D01*
G01X5825Y18625D02*
G01X6413Y19213D01*
G01X6413Y21413D01*
G01X8000Y23000D01*
G01X40600Y11300D02*
G01X40600Y14969D01*
G01X38669Y16900D01*
G01X14015Y27534D02*
G01X12401Y25917D01*
G01X12401Y24401D01*
G01X11000Y23000D01*
G01X14015Y27534D02*
G01X14000Y27550D01*
G01X5600Y12150D02*
G01X6114Y12150D01*
G01X7464Y13500D01*
G01X2500Y5567D02*
G01X2500Y9050D01*
G01X5600Y12150D01*
G01X8000Y13500D02*
G01X7464Y13500D01*
G01X17200Y7300D02*
G01X16602Y6701D01*
G01X15097Y6701D01*
G01X14600Y7200D01*
G01X8555Y23000D02*
G01X8000Y23000D01*
G01X11000Y23000D02*
G01X8555Y23000D01*
G01X8555Y23000D02*
G01X8555Y26344D01*
G01X8200Y26700D01*
G01X22300Y11800D02*
G01X23600Y10500D01*
G01X23600Y3200D01*
G01X23700Y1500D02*
G01X23600Y1600D01*
G01X23600Y3200D01*
G01X30589Y28769D02*
G01X34450Y24909D01*
G01X34450Y20328D01*
G01X37880Y16900D01*
G01X38669Y16900D01*
G54D14*
G01X14600Y10200D02*
G01X14319Y9919D01*
G01X14319Y8690D01*
G54D12*
G01X10200Y26700D02*
G01X12564Y29063D01*
G01X14530Y29063D01*
G01X19369Y24223D01*
G01X19369Y22603D01*
G01X19672Y22300D01*
G01X24389Y22300D01*
G01X31710Y14978D01*
G01X31710Y14388D01*
G01X32300Y13800D01*
G01X11000Y9500D02*
G01X11000Y9926D01*
G01X11000Y19000D02*
G01X11000Y18573D01*
G01X11000Y18573D02*
G01X11213Y18573D01*
G01X11426Y18361D01*
G01X11426Y10138D01*
G01X11213Y9926D01*
G01X11000Y9926D01*
G01X14000Y28550D02*
G01X17243Y25307D01*
G01X17243Y22242D01*
G01X16800Y21800D01*
G01X27600Y3200D02*
G01X27600Y7105D01*
G01X22406Y12300D01*
G01X22190Y12300D01*
G01X17373Y17117D01*
G01X17373Y21226D01*
G01X16800Y21800D01*
G01X29589Y28769D02*
G01X24193Y23373D01*
G01X20373Y23373D01*
G01X19800Y22800D01*
G01X21800Y29400D02*
G01X22285Y28915D01*
G01X22285Y26284D01*
G01X19800Y23800D01*
G01X6200Y26700D02*
G01X3400Y23900D01*
G01X2400Y23900D01*
G01X40600Y8300D02*
G01X38698Y10201D01*
G01X38698Y13280D01*
G01X32300Y19678D01*
G01X32300Y19800D01*
G01X19800Y21800D02*
G01X19800Y21717D01*
G01X22217Y19300D01*
G01X22464Y19300D01*
G01X28093Y13669D01*
G01X28093Y1894D01*
G01X27700Y1500D01*
G01X21600Y5100D02*
G01X21600Y12100D01*
G01X21600Y12100D02*
G01X20000Y13700D01*
G01X20000Y13700D02*
G01X19800Y13900D01*
G01X20900Y15400D02*
G01X21200Y15400D01*
G01X21600Y15800D01*
G01X22300Y15800D01*
G54D20*
G01X17800Y5250D03*
G54D21*
G01X15900Y7300D03*
G01X15900Y10300D03*
G01X14600Y7200D03*
G01X14600Y10200D03*
G54D22*
G01X2400Y23900D03*
G01X2400Y21932D03*
G54D23*
G01X4200Y26700D03*
G54D24*
G01X5200Y26700D03*
G01X6200Y26700D03*
G01X7200Y26700D03*
G01X8200Y26700D03*
G01X9200Y26700D03*
G01X10200Y26700D03*
G01X11200Y26700D03*
G01X10200Y29700D03*
G01X9200Y29700D03*
G01X8200Y29700D03*
G01X7200Y29700D03*
G01X6200Y29700D03*
G01X5200Y29700D03*
G01X4200Y29700D03*
G01X11200Y29700D03*
G54D25*
G01X8000Y14500D03*
G01X8000Y13500D03*
G01X8000Y10500D03*
G01X8000Y9500D03*
G01X8000Y12500D03*
G01X8000Y11500D03*
G01X8000Y8500D03*
G01X11000Y8500D03*
G01X11000Y9500D03*
G01X11000Y10500D03*
G01X11000Y11500D03*
G01X11000Y12500D03*
G01X11000Y13500D03*
G01X11000Y14500D03*
G54D26*
G01X40600Y11300D03*
G01X40600Y10300D03*
G01X40600Y9300D03*
G01X40600Y8300D03*
G54D20*
G01X14000Y28550D03*
G01X5600Y13150D03*
G01X5700Y19750D03*
G54D22*
G01X2500Y3600D03*
G01X2500Y5567D03*
G54D20*
G01X17700Y15150D03*
G54D27*
G01X9400Y2500D03*
G01X9400Y5500D03*
G54D21*
G01X13300Y7300D03*
G01X13300Y10300D03*
G01X17200Y7300D03*
G01X17200Y10300D03*
G54D25*
G01X8000Y24000D03*
G01X8000Y23000D03*
G01X8000Y20000D03*
G01X8000Y19000D03*
G01X8000Y22000D03*
G01X8000Y21000D03*
G01X8000Y18000D03*
G01X11000Y18000D03*
G01X11000Y19000D03*
G01X11000Y20000D03*
G01X11000Y21000D03*
G01X11000Y22000D03*
G01X11000Y23000D03*
G01X11000Y24000D03*
G01X16800Y23800D03*
G54D28*
G01X16800Y22800D03*
G01X16800Y21800D03*
G01X16800Y20800D03*
G01X19800Y20800D03*
G01X19800Y21800D03*
G01X19800Y22800D03*
G01X19800Y23800D03*
G54D26*
G01X32300Y24800D03*
G01X32300Y23800D03*
G01X32300Y22800D03*
G01X32300Y21800D03*
G01X32300Y20800D03*
G01X32300Y19800D03*
G01X32300Y18800D03*
G01X32300Y17800D03*
G01X32300Y16800D03*
G01X32300Y15800D03*
G01X32300Y14800D03*
G01X32300Y13800D03*
G01X32300Y12800D03*
G01X32300Y11800D03*
G01X32300Y10800D03*
G01X32300Y9800D03*
G01X32300Y8800D03*
G01X32300Y7800D03*
G01X32300Y6800D03*
G01X22300Y24800D03*
G01X22300Y23800D03*
G01X22300Y22800D03*
G01X22300Y21800D03*
G01X22300Y20800D03*
G01X22300Y19800D03*
G01X22300Y18800D03*
G01X22300Y17800D03*
G01X22300Y16800D03*
G01X22300Y15800D03*
G01X22300Y14800D03*
G01X22300Y13800D03*
G01X22300Y12800D03*
G01X22300Y11800D03*
G01X22300Y10800D03*
G01X22300Y9800D03*
G01X22300Y8800D03*
G01X22300Y7800D03*
G01X22300Y6800D03*
G54D21*
G01X29100Y3100D03*
G01X33100Y3100D03*
G01X29100Y1500D03*
G01X33100Y1500D03*
G01X23600Y3200D03*
G01X27600Y3200D03*
G54D22*
G01X2300Y13200D03*
G01X2300Y11232D03*
G01X2300Y18600D03*
G01X2300Y16632D03*
G54D26*
G01X21800Y28400D03*
G01X21800Y29400D03*
G01X21839Y27392D03*
G54D21*
G01X23700Y1500D03*
G01X27700Y1500D03*
G54D29*
G01X29589Y28769D03*
G01X30589Y28769D03*
G54D26*
G01X38250Y27338D03*
G01X38250Y29700D03*
G01X36675Y27338D03*
G01X36675Y29700D03*
G54D22*
G01X17100Y28600D03*
G01X19068Y28600D03*
G54D15*
G01X15431Y25717D03*
G01X31785Y3644D03*
G01X5872Y16728D03*
G01X33842Y22800D03*
G01X27967Y18378D03*
G01X15381Y2451D03*
G01X19227Y3986D03*
G01X15486Y11982D03*
G01X14319Y8690D03*
G54D16*
G01X21600Y5100D03*
G01X19800Y13900D03*
G01X20900Y15400D03*
G54D30*
G01X36169Y17333D02*
G01X36169Y16466D01*
G01X38669Y16466D02*
G01X38669Y17333D01*
G01X37783Y18690D02*
G01X36916Y18690D01*
G54D31*
G01X17898Y3250D02*
G01X17701Y3250D01*
G01X17898Y4250D02*
G01X17701Y4250D01*
G01X14098Y26550D02*
G01X13901Y26550D01*
G01X14098Y27550D02*
G01X13901Y27550D01*
G01X5698Y11150D02*
G01X5501Y11150D01*
G01X5698Y12150D02*
G01X5501Y12150D01*
G01X5798Y17750D02*
G01X5601Y17750D01*
G01X5798Y18750D02*
G01X5601Y18750D01*
G01X17798Y13150D02*
G01X17601Y13150D01*
G01X17798Y14150D02*
G01X17601Y14150D01*
M00*
M02*
