G04 ---------------------------- Layer name :BOTTOM SOLDER LAYER*
G04 EasyEDA v5.4.12, Wed, 30 May 2018 14:54:02 GMT*
G04 28c5c568ee064045b2737d890bb1bb74*
G04 Gerber Generator version 0.2*
G04 Scale: 100 percent, Rotated: No, Reflected: No *
G04 Dimensions in inches *
G04 leading zeros omitted , absolute positions ,2 integer and 4 decimal *
%FSLAX24Y24*%
%MOIN*%
G90*
G70D02*

%ADD37C,0.078866*%
%ADD38C,0.086740*%
%ADD39R,0.106425X0.086740*%
%ADD40C,0.082000*%
%ADD41C,0.126110*%
%ADD42R,0.063100X0.063100*%
%ADD43C,0.063100*%
%ADD44R,0.071000X0.071000*%
%ADD45C,0.068000*%
%ADD46C,0.094614*%
%ADD47C,0.071000*%
%ADD48C,0.055000*%

%LPD*%
G54D37*
G01X36169Y17333D02*
G01X36169Y16466D01*
G01X38669Y16466D02*
G01X38669Y17333D01*
G01X37783Y18690D02*
G01X36916Y18690D01*
G54D38*
G01X17898Y3250D02*
G01X17701Y3250D01*
G01X17898Y4250D02*
G01X17701Y4250D01*
G01X14098Y26550D02*
G01X13901Y26550D01*
G01X14098Y27550D02*
G01X13901Y27550D01*
G01X5698Y11150D02*
G01X5501Y11150D01*
G01X5698Y12150D02*
G01X5501Y12150D01*
G01X5798Y17750D02*
G01X5601Y17750D01*
G01X5798Y18750D02*
G01X5601Y18750D01*
G01X17798Y13150D02*
G01X17601Y13150D01*
G01X17798Y14150D02*
G01X17601Y14150D01*
G54D39*
G01X17800Y5250D03*
G54D40*
G01X15900Y7300D03*
G01X15900Y10300D03*
G01X14600Y7200D03*
G01X14600Y10200D03*
G54D41*
G01X2400Y23900D03*
G01X2400Y21932D03*
G54D42*
G01X4200Y26700D03*
G54D43*
G01X5200Y26700D03*
G01X6200Y26700D03*
G01X7200Y26700D03*
G01X8200Y26700D03*
G01X9200Y26700D03*
G01X10200Y26700D03*
G01X11200Y26700D03*
G01X10200Y29700D03*
G01X9200Y29700D03*
G01X8200Y29700D03*
G01X7200Y29700D03*
G01X6200Y29700D03*
G01X5200Y29700D03*
G01X4200Y29700D03*
G01X11200Y29700D03*
G54D44*
G01X8000Y14500D03*
G01X8000Y13500D03*
G01X8000Y10500D03*
G01X8000Y9500D03*
G01X8000Y12500D03*
G01X8000Y11500D03*
G01X8000Y8500D03*
G01X11000Y8500D03*
G01X11000Y9500D03*
G01X11000Y10500D03*
G01X11000Y11500D03*
G01X11000Y12500D03*
G01X11000Y13500D03*
G01X11000Y14500D03*
G54D45*
G01X40600Y11300D03*
G01X40600Y10300D03*
G01X40600Y9300D03*
G01X40600Y8300D03*
G54D39*
G01X14000Y28550D03*
G01X5600Y13150D03*
G01X5700Y19750D03*
G54D41*
G01X2500Y3600D03*
G01X2500Y5567D03*
G54D39*
G01X17700Y15150D03*
G54D46*
G01X9400Y2500D03*
G01X9400Y5500D03*
G54D40*
G01X13300Y7300D03*
G01X13300Y10300D03*
G01X17200Y7300D03*
G01X17200Y10300D03*
G54D44*
G01X8000Y24000D03*
G01X8000Y23000D03*
G01X8000Y20000D03*
G01X8000Y19000D03*
G01X8000Y22000D03*
G01X8000Y21000D03*
G01X8000Y18000D03*
G01X11000Y18000D03*
G01X11000Y19000D03*
G01X11000Y20000D03*
G01X11000Y21000D03*
G01X11000Y22000D03*
G01X11000Y23000D03*
G01X11000Y24000D03*
G01X16800Y23800D03*
G54D47*
G01X16800Y22800D03*
G01X16800Y21800D03*
G01X16800Y20800D03*
G01X19800Y20800D03*
G01X19800Y21800D03*
G01X19800Y22800D03*
G01X19800Y23800D03*
G54D45*
G01X32300Y24800D03*
G01X32300Y23800D03*
G01X32300Y22800D03*
G01X32300Y21800D03*
G01X32300Y20800D03*
G01X32300Y19800D03*
G01X32300Y18800D03*
G01X32300Y17800D03*
G01X32300Y16800D03*
G01X32300Y15800D03*
G01X32300Y14800D03*
G01X32300Y13800D03*
G01X32300Y12800D03*
G01X32300Y11800D03*
G01X32300Y10800D03*
G01X32300Y9800D03*
G01X32300Y8800D03*
G01X32300Y7800D03*
G01X32300Y6800D03*
G01X22300Y24800D03*
G01X22300Y23800D03*
G01X22300Y22800D03*
G01X22300Y21800D03*
G01X22300Y20800D03*
G01X22300Y19800D03*
G01X22300Y18800D03*
G01X22300Y17800D03*
G01X22300Y16800D03*
G01X22300Y15800D03*
G01X22300Y14800D03*
G01X22300Y13800D03*
G01X22300Y12800D03*
G01X22300Y11800D03*
G01X22300Y10800D03*
G01X22300Y9800D03*
G01X22300Y8800D03*
G01X22300Y7800D03*
G01X22300Y6800D03*
G54D40*
G01X29100Y3100D03*
G01X33100Y3100D03*
G01X29100Y1500D03*
G01X33100Y1500D03*
G01X23600Y3200D03*
G01X27600Y3200D03*
G54D41*
G01X2300Y13200D03*
G01X2300Y11232D03*
G01X2300Y18600D03*
G01X2300Y16632D03*
G54D45*
G01X21800Y28400D03*
G01X21800Y29400D03*
G01X21839Y27392D03*
G54D40*
G01X23700Y1500D03*
G01X27700Y1500D03*
G54D48*
G01X29589Y28769D03*
G01X30589Y28769D03*
G54D45*
G01X38250Y27338D03*
G01X38250Y29700D03*
G01X36675Y27338D03*
G01X36675Y29700D03*
G54D41*
G01X17100Y28600D03*
G01X19068Y28600D03*
M00*
M02*
