;PTH Drill file created by EasyEDA 
M48
INCH,LZ
;Holesize 1 = 0.012 INCH
T01C0.012
;Holesize 2 = 0.028 INCH
T02C0.028
;Holesize 3 = 0.030 INCH
T03C0.030
;Holesize 4 = 0.032 INCH
T04C0.032
;Holesize 5 = 0.035 INCH
T05C0.035
;Holesize 6 = 0.035 INCH
T06C0.035
;Holesize 7 = 0.036 INCH
T07C0.036
;Holesize 8 = 0.039 INCH
T08C0.039
;Holesize 9 = 0.047 INCH
T09C0.047
;Holesize 10 = 0.051 INCH
T10C0.051
;Holesize 11 = 0.067 INCH
T11C0.067
%
G05
G90
T01
X015431Y025717
X031785Y003644
X005872Y016728
X033842Y022800
X027967Y018378
X015381Y002451
X019227Y003986
X015486Y011982
X014319Y008690
X021600Y005100
X019800Y013900
X020900Y015400
T02
X029589Y028769
X030589Y028769
T03
X021800Y028400
X021800Y029400
X021839Y027392
T04
X008000Y014500
X008000Y013500
X008000Y010500
X008000Y009500
X008000Y012500
X008000Y011500
X008000Y008500
X011000Y008500
X011000Y009500
X011000Y010500
X011000Y011500
X011000Y012500
X011000Y013500
X011000Y014500
X008000Y024000
X008000Y023000
X008000Y020000
X008000Y019000
X008000Y022000
X008000Y021000
X008000Y018000
X011000Y018000
X011000Y019000
X011000Y020000
X011000Y021000
X011000Y022000
X011000Y023000
X011000Y024000
T05
X016800Y023800
X016800Y022800
X016800Y021800
X016800Y020800
X019800Y020800
X019800Y021800
X019800Y022800
X019800Y023800
T06
X015900Y007300
X015900Y010300
X014600Y007200
X014600Y010200
X004200Y026700
X005200Y026700
X006200Y026700
X007200Y026700
X008200Y026700
X009200Y026700
X010200Y026700
X011200Y026700
X010200Y029700
X009200Y029700
X008200Y029700
X007200Y029700
X006200Y029700
X005200Y029700
X004200Y029700
X011200Y029700
X013300Y007300
X013300Y010300
X017200Y007300
X017200Y010300
X029100Y003100
X033100Y003100
X029100Y001500
X033100Y001500
X023600Y003200
X027600Y003200
X023700Y001500
X027700Y001500
T07
X040600Y011300
X040600Y010300
X040600Y009300
X040600Y008300
X032300Y024800
X032300Y023800
X032300Y022800
X032300Y021800
X032300Y020800
X032300Y019800
X032300Y018800
X032300Y017800
X032300Y016800
X032300Y015800
X032300Y014800
X032300Y013800
X032300Y012800
X032300Y011800
X032300Y010800
X032300Y009800
X032300Y008800
X032300Y007800
X032300Y006800
X022300Y024800
X022300Y023800
X022300Y022800
X022300Y021800
X022300Y020800
X022300Y019800
X022300Y018800
X022300Y017800
X022300Y016800
X022300Y015800
X022300Y014800
X022300Y013800
X022300Y012800
X022300Y011800
X022300Y010800
X022300Y009800
X022300Y008800
X022300Y007800
X022300Y006800
T08
X038250Y027338
X038250Y029700
X036675Y027338
X036675Y029700
T09
X036169Y017313G85X036169Y016486
X038669Y016486G85X038669Y017313
X037763Y018690G85X036936Y018690
X009400Y002500
X009400Y005500
T10
X017800Y005250
X017800Y003250
X017800Y004250
X014000Y028550
X014000Y026550
X014000Y027550
X005600Y013150
X005600Y011150
X005600Y012150
X005700Y019750
X005700Y017750
X005700Y018750
X017700Y015150
X017700Y013150
X017700Y014150
T11
X002400Y023900
X002400Y021932
X002500Y003600
X002500Y005567
X002300Y013200
X002300Y011232
X002300Y018600
X002300Y016632
X017100Y028600
X019068Y028600
M30
